<?xml version="1.0" encoding="utf-8"?>
<!-- Generator: Adobe Illustrator 27.0.0, SVG Export Plug-In . SVG Version: 6.00 Build 0)  -->
<svg version="1.1" id="Layer_1" xmlns="http://www.w3.org/2000/svg" xmlns:xlink="http://www.w3.org/1999/xlink" x="0px" y="0px"
	 viewBox="0 0 1000 1000" style="enable-background:new 0 0 1000 1000;" xml:space="preserve">
<style type="text/css">
	.st0{fill:#FFF5EA;}
	.st1{fill:#61BEFF;}
</style>
<g>
	<path class="st0" d="M341.4,1000c-27.8,0-54.9-4.7-81.5-14.1c-26.5-9.4-50.6-23.3-72.3-41.7l84.4-101.8
		c7.9,6.5,17.7,12.4,29.2,17.6c11.5,5.2,24.9,7.8,40.1,7.8c19.8,0,37.9-5.1,54.1-15.4c16.2-10.3,29.3-23.8,39.2-40.6
		c9.9-16.8,14.9-35.1,14.9-54.9V228.1h132.1v528.9c0,44.4-10.8,84.9-32.5,121.5c-21.6,36.6-50.7,66-87.1,88.2
		C425.6,988.9,385.4,1000,341.4,1000z"/>
</g>
<g>
	<path class="st1" d="M766.8,332.9l44.1,14.1c1.2,0.8,1.7,1.6,1.4,2.6l-39.7,123.8c-0.4,1.3-1.3,1.8-2.6,1.3l-13.4-4.3
		c-42.9-13.8-74.1-15.9-93.5-6.5c-39.3,10-67.7,42.6-85.4,97.7c-9.5,29.7-34.5,62.7-74.9,98.9c-44,36.1-99.8,54.7-167.5,55.6
		c-23.5-1.7-43-5-58.5-10l-45.1-14.4c-1.3-0.4-1.8-1.3-1.3-2.6l39.7-123.8c0.7-1.2,1.6-1.7,2.6-1.3l23.8,7.6
		c56.5,18.1,102.7,7.4,138.6-32c10.3-11.6,20.6-33.5,30.8-65.5c19.4-42.2,49.2-78,89.6-107.3c48.1-30.8,99-45.4,152.8-43.9
		C731.1,324.3,750.6,327.7,766.8,332.9z"/>
</g>
<g id="Ellipse_2">
	<g>
		
			<ellipse transform="matrix(0.9537 -0.3006 0.3006 0.9537 9.614380e-02 157.0476)" class="st1" cx="510.3" cy="78.2" rx="78.2" ry="78.2"/>
	</g>
</g>
</svg>
