<?xml version="1.0" encoding="utf-8"?>
<!-- Generator: Adobe Illustrator 27.0.0, SVG Export Plug-In . SVG Version: 6.00 Build 0)  -->
<svg version="1.1" id="C3_00000021112879657210704340000009557809108952026532_"
	 xmlns="http://www.w3.org/2000/svg" xmlns:xlink="http://www.w3.org/1999/xlink" x="0px" y="0px" viewBox="0 0 636.7 155"
	 style="enable-background:new 0 0 636.7 155;" xml:space="preserve">
<style type="text/css">
	.st0{fill:#FFF5EA;}
	.st1{fill:#61BEFF;}
</style>
<g id="JakeShoffner">
	<g>
		<path class="st0" d="M117.8,118.3c-2.4,0-4.7-0.4-6.9-1.2c-2.3-0.8-4.3-2-6.1-3.5l8.3-9.9c0.5,0.4,1.1,0.8,1.9,1.1
			c0.8,0.4,1.7,0.6,2.8,0.6c1.4,0,2.6-0.3,3.7-1c1.1-0.7,2-1.6,2.7-2.7s1-2.4,1-3.7V56.9h12.9V98c0,3.7-0.9,7.1-2.8,10.2
			c-1.8,3.1-4.3,5.5-7.4,7.4C125,117.4,121.6,118.3,117.8,118.3z"/>
		<path class="st0" d="M179.5,74.1h12.9v43.1h-13l-0.6-3.9c-1.1,1.5-2.4,2.7-4,3.6c-1.6,0.9-3.5,1.4-5.7,1.4c-3.2,0-6.2-0.6-9-1.8
			s-5.3-2.9-7.4-5c-2.1-2.1-3.8-4.6-5-7.4c-1.2-2.8-1.8-5.8-1.8-9c0-3.1,0.6-5.9,1.7-8.6c1.1-2.7,2.7-5,4.7-7c2-2,4.4-3.6,7-4.8
			c2.7-1.1,5.5-1.7,8.6-1.7c2.5,0,4.7,0.5,6.7,1.5c2,1,3.8,2.3,5.4,3.8L179.5,74.1z M168.8,105.9c1.8,0,3.4-0.5,4.9-1.4
			c1.5-0.9,2.6-2.2,3.5-3.7s1.3-3.3,1.3-5.2s-0.4-3.6-1.3-5.2s-2-2.8-3.5-3.7c-1.5-0.9-3.1-1.4-4.9-1.4c-1.8,0-3.4,0.5-4.8,1.4
			c-1.5,0.9-2.6,2.2-3.4,3.7s-1.3,3.3-1.3,5.2s0.4,3.6,1.3,5.2c0.9,1.6,2,2.8,3.5,3.7C165.4,105.5,167,105.9,168.8,105.9z"/>
		<path class="st0" d="M242.2,117.2h-14.9l-8.6-14.8l-4.7,5.5v9.3H201V52.6H214v35.3l11.5-13.7h16.9l-14.8,17.8L242.2,117.2z"/>
		<path class="st0" d="M264.3,118.3c-4,0-7.6-1-10.8-3.1c-3.3-2-5.9-4.8-7.8-8.2s-2.9-7.3-2.9-11.4c0-3.1,0.6-6.1,1.7-8.8
			c1.1-2.7,2.7-5.2,4.6-7.2c2-2.1,4.3-3.7,6.9-4.9c2.6-1.2,5.4-1.8,8.4-1.8c3.4,0,6.6,0.8,9.5,2.3c2.9,1.5,5.3,3.5,7.2,6.1
			c2,2.6,3.4,5.5,4.2,8.7c0.8,3.2,0.9,6.5,0.3,10h-28.8c0.4,1,0.9,1.9,1.6,2.7c0.7,0.8,1.5,1.5,2.5,2c1,0.5,2.1,0.7,3.5,0.8
			c1.3,0,2.4-0.2,3.5-0.8s2-1.4,2.8-2.3l13.2,3.1c-1.8,3.8-4.4,6.9-7.8,9.4C272.5,117.1,268.6,118.3,264.3,118.3z M256.3,90.4h16.2
			c-0.4-1.2-1-2.3-1.8-3.3c-0.8-0.9-1.7-1.7-2.8-2.2c-1.1-0.5-2.2-0.8-3.5-0.8c-1.2,0-2.3,0.3-3.4,0.8c-1.1,0.5-2,1.3-2.8,2.2
			C257.3,88.1,256.7,89.2,256.3,90.4z"/>
		<path class="st1" d="M315.7,118.3c-3.4,0-6.6-0.5-9.7-1.6c-3.1-1.1-5.8-2.6-8.1-4.7c-2.3-2-4-4.4-5-7.3l12.2-4.5
			c0.3,0.8,0.9,1.6,1.9,2.4c1,0.8,2.2,1.4,3.8,1.9c1.5,0.5,3.2,0.8,5.1,0.8c1.7,0,3.3-0.3,4.9-0.8s2.8-1.2,3.7-2.1
			c0.9-0.9,1.4-1.9,1.4-3.1c0-1.2-0.5-2.2-1.5-3c-1-0.8-2.3-1.4-3.8-1.9c-1.5-0.5-3.1-0.8-4.7-1.1c-4.4-0.6-8.3-1.7-11.7-3.1
			c-3.5-1.5-6.2-3.5-8.2-6c-2-2.6-3-5.8-3-9.7c0-3.8,1.1-7.1,3.2-9.9c2.1-2.8,4.9-5,8.4-6.6c3.5-1.6,7.3-2.4,11.3-2.4
			c3.4,0,6.6,0.5,9.8,1.6c3.1,1.1,5.8,2.6,8.2,4.7c2.3,2,4,4.5,5,7.3l-12.2,4.4c-0.3-0.8-0.9-1.6-1.9-2.4c-1-0.8-2.2-1.4-3.8-1.9
			c-1.5-0.5-3.2-0.7-5.1-0.7c-1.7,0-3.3,0.2-4.8,0.7c-1.5,0.5-2.8,1.2-3.8,2.1c-1,0.9-1.5,1.9-1.5,3c0,1.6,0.5,2.7,1.4,3.5
			c0.9,0.8,2.1,1.3,3.6,1.6c1.5,0.3,3.2,0.6,5,0.9c4.1,0.6,7.9,1.7,11.4,3.2s6.3,3.6,8.4,6.2s3.1,5.7,3.1,9.4c0,3.8-1.1,7.1-3.2,9.9
			s-4.9,5-8.4,6.6S319.8,118.3,315.7,118.3z"/>
		<path class="st1" d="M388.6,89.7v27.5h-12.9V93.3c0-1.4-0.3-2.6-1-3.7s-1.5-2-2.6-2.6c-1.1-0.6-2.3-1-3.7-1c-1.4,0-2.6,0.3-3.7,1
			c-1.1,0.6-2,1.5-2.6,2.6s-1,2.3-1,3.7v23.9h-12.9l0-64.7h12.9l0,24.3c1.4-1.2,3.1-2.2,4.9-2.9c1.8-0.7,3.8-1,5.8-1
			c3.1,0,5.9,0.8,8.5,2.3c2.5,1.5,4.5,3.5,6.1,6.1C387.9,83.7,388.6,86.6,388.6,89.7z"/>
		<path class="st1" d="M415.3,118.3c-4,0-7.6-1-10.8-3.1c-3.3-2-5.9-4.8-7.8-8.2c-1.9-3.4-2.9-7.2-2.9-11.4c0-3.2,0.6-6.1,1.7-8.9
			c1.1-2.7,2.7-5.2,4.6-7.2c2-2.1,4.3-3.7,6.9-4.9c2.6-1.2,5.4-1.8,8.4-1.8c4,0,7.6,1,10.8,3.1c3.3,2,5.9,4.8,7.8,8.2
			c1.9,3.4,2.9,7.3,2.9,11.5c0,3.1-0.6,6.1-1.7,8.8c-1.1,2.7-2.7,5.1-4.6,7.2c-2,2.1-4.3,3.7-6.9,4.9
			C421.1,117.7,418.3,118.3,415.3,118.3z M415.3,105.4c1.6,0,3.1-0.4,4.4-1.3c1.3-0.9,2.3-2.1,3.1-3.6c0.7-1.5,1.1-3.1,1.1-4.8
			c0-1.8-0.4-3.5-1.2-5c-0.8-1.5-1.8-2.7-3.1-3.6c-1.3-0.9-2.7-1.3-4.3-1.3c-1.6,0-3.1,0.5-4.4,1.4s-2.3,2.1-3.1,3.6
			c-0.8,1.5-1.1,3.1-1.1,4.9c0,1.8,0.4,3.5,1.2,5c0.8,1.5,1.8,2.6,3.1,3.5S413.8,105.4,415.3,105.4z"/>
		<path class="st1" d="M458.6,66.3v7.8h11.1V87h-11.1v30.2h-12.9V87h-4.1V74.1h4.1v-7.8c0-2.7,0.7-5.2,2-7.4c1.3-2.2,3.1-4,5.4-5.3
			c2.2-1.3,4.7-2,7.5-2c2,0,4,0.4,5.9,1.2c2,0.8,3.7,2.1,5.2,3.9l-9.3,9.1c-0.1-0.4-0.4-0.8-0.8-1c-0.4-0.2-0.7-0.3-1.1-0.3
			c-0.5,0-1,0.2-1.3,0.5C458.8,65.3,458.6,65.7,458.6,66.3z"/>
		<path class="st1" d="M491.5,66.3v7.8h11.1V87h-11.1v30.2h-12.9V87h-4.1V74.1h4.1v-7.8c0-2.7,0.7-5.2,2-7.4c1.3-2.2,3.1-4,5.4-5.3
			c2.2-1.3,4.7-2,7.5-2c2,0,4,0.4,5.9,1.2c2,0.8,3.7,2.1,5.2,3.9l-9.3,9.1c-0.1-0.4-0.4-0.8-0.8-1c-0.4-0.2-0.7-0.3-1.1-0.3
			c-0.5,0-1,0.2-1.3,0.5C491.7,65.3,491.5,65.7,491.5,66.3z"/>
		<path class="st1" d="M550.8,89.7v27.5h-12.9V93.3c0-1.4-0.3-2.6-1-3.7s-1.5-2-2.6-2.6c-1.1-0.6-2.3-1-3.7-1c-1.4,0-2.6,0.3-3.7,1
			c-1.1,0.6-2,1.5-2.6,2.6s-1,2.3-1,3.7v23.9h-12.9l0-43.1h12.9l0,2.7c1.4-1.2,3.1-2.2,4.9-2.9c1.8-0.7,3.8-1,5.8-1
			c3.1,0,5.9,0.8,8.5,2.3c2.5,1.5,4.5,3.5,6.1,6.1C550.1,83.7,550.8,86.6,550.8,89.7z"/>
		<path class="st1" d="M577.6,118.3c-4,0-7.6-1-10.8-3.1c-3.3-2-5.9-4.8-7.8-8.2c-1.9-3.4-2.9-7.3-2.9-11.4c0-3.1,0.6-6.1,1.7-8.8
			c1.1-2.7,2.7-5.2,4.6-7.2c2-2.1,4.3-3.7,6.9-4.9c2.6-1.2,5.4-1.8,8.4-1.8c3.4,0,6.6,0.8,9.5,2.3s5.3,3.5,7.2,6.1
			c2,2.6,3.4,5.5,4.2,8.7c0.8,3.2,0.9,6.5,0.3,10H570c0.4,1,0.9,1.9,1.6,2.7c0.7,0.8,1.5,1.5,2.5,2c1,0.5,2.1,0.7,3.5,0.8
			c1.3,0,2.4-0.2,3.5-0.8c1.1-0.6,2-1.4,2.8-2.3l13.2,3.1c-1.8,3.8-4.4,6.9-7.8,9.4C585.8,117.1,581.9,118.3,577.6,118.3z
			 M569.5,90.4h16.2c-0.4-1.2-1-2.3-1.8-3.3c-0.8-0.9-1.7-1.7-2.8-2.2c-1.1-0.5-2.2-0.8-3.5-0.8c-1.2,0-2.3,0.3-3.4,0.8
			c-1.1,0.5-2,1.3-2.8,2.2C570.5,88.1,569.9,89.2,569.5,90.4z"/>
		<path class="st1" d="M605.6,117.2l0-43.1h12.9l0,2.7c1.4-1.2,3.1-2.2,4.9-2.9c1.8-0.7,3.8-1,5.8-1c1.6,0,3.1,0.2,4.7,0.7
			l-5.1,13.1c-1-0.5-2-0.7-3.1-0.7c-1.4,0-2.6,0.3-3.7,1c-1.1,0.6-2,1.5-2.6,2.6s-1,2.3-1,3.7v23.9H605.6z"/>
	</g>
</g>
<g id="J">
	<g>
		<path class="st0" d="M23.5,143.2c-3.7,0-7.4-0.6-10.9-1.9c-3.6-1.3-6.8-3.1-9.7-5.6L14.2,122c1.1,0.9,2.4,1.7,3.9,2.4
			c1.5,0.7,3.3,1.1,5.4,1.1c2.7,0,5.1-0.7,7.3-2.1c2.2-1.4,3.9-3.2,5.3-5.5c1.3-2.3,2-4.7,2-7.4v-71h17.7v71c0,6-1.5,11.4-4.4,16.3
			c-2.9,4.9-6.8,8.9-11.7,11.8C34.9,141.7,29.5,143.2,23.5,143.2z"/>
	</g>
</g>
<g id="s">
	<g>
		<path class="st1" d="M80.7,53.6l5.9,1.9c0.2,0.1,0.2,0.2,0.2,0.4l-5.3,16.6c-0.1,0.2-0.2,0.2-0.4,0.2l-1.8-0.6
			c-5.8-1.8-9.9-2.1-12.6-0.9c-5.3,1.3-9.1,5.7-11.5,13.1c-1.3,4-4.6,8.4-10,13.3c-5.9,4.9-13.4,7.3-22.5,7.5
			c-3.2-0.2-5.8-0.7-7.9-1.3l-6.1-1.9c-0.2-0.1-0.2-0.2-0.2-0.4L14,84.8c0.1-0.2,0.2-0.2,0.4-0.2l3.2,1c7.6,2.4,13.8,1,18.6-4.3
			c1.4-1.6,2.8-4.5,4.1-8.8c2.6-5.7,6.6-10.5,12-14.4c6.5-4.1,13.3-6.1,20.5-5.9C75.9,52.5,78.5,52.9,80.7,53.6z"/>
	</g>
</g>
<g id="Ellipse_2">
	<g>
		<ellipse transform="matrix(0.982 -0.1891 0.1891 0.982 -2.8365 9.092)" class="st1" cx="46.2" cy="19.4" rx="10.5" ry="10.5"/>
	</g>
</g>
</svg>
